<?xml version="1.0" encoding="UTF-8" standalone="no"?>
<!-- Created with Inkscape (http://www.inkscape.org/) -->

<svg
   width="21.16667mm"
   height="16.667156mm"
   viewBox="0 0 21.166669 16.667157"
   version="1.1"
   id="svg5"
   inkscape:version="1.1 (c68e22c387, 2021-05-23)"
   sodipodi:docname="Gauntlet.svg"
   xmlns:inkscape="http://www.inkscape.org/namespaces/inkscape"
   xmlns:sodipodi="http://sodipodi.sourceforge.net/DTD/sodipodi-0.dtd"
   xmlns="http://www.w3.org/2000/svg"
   xmlns:svg="http://www.w3.org/2000/svg">
  <sodipodi:namedview
     id="namedview7"
     pagecolor="#ffffff"
     bordercolor="#666666"
     borderopacity="1.0"
     inkscape:pageshadow="2"
     inkscape:pageopacity="0.0"
     inkscape:pagecheckerboard="0"
     inkscape:document-units="mm"
     showgrid="false"
     fit-margin-top="0"
     fit-margin-left="0"
     fit-margin-right="0"
     fit-margin-bottom="0"
     inkscape:zoom="2"
     inkscape:cx="-56.25"
     inkscape:cy="21.75"
     inkscape:window-width="2560"
     inkscape:window-height="1377"
     inkscape:window-x="1912"
     inkscape:window-y="-8"
     inkscape:window-maximized="1"
     inkscape:current-layer="layer1" />
  <defs
     id="defs2" />
  <g
     inkscape:label="Layer 1"
     inkscape:groupmode="layer"
     id="layer1"
     transform="translate(-108.78642,-98.37889)">
    <path
       style="fill:#0ad8fe;stroke-width:0.352778"
       d="m 111.84333,114.82167 c -0.12935,-0.12935 -0.23518,-0.69308 -0.23518,-1.25272 v -1.01754 l 1.16308,-0.48597 c 0.6397,-0.26728 1.94939,-0.53699 2.91042,-0.59936 l 1.74733,-0.11339 -0.12051,0.70556 c -0.0663,0.38805 -0.26472,0.75847 -0.44097,0.82314 -0.17625,0.0647 -0.32046,0.28772 -0.32046,0.49565 0,0.75492 1.51802,-1.00921 2.34906,-2.72991 0.46855,-0.97013 1.16681,-2.14267 1.55169,-2.60563 l 0.69979,-0.84174 2.02125,-0.47566 c 1.1117,-0.26162 2.14033,-0.47815 2.28585,-0.48118 0.14552,-0.003 0.26458,1.40565 0.26458,3.13041 v 3.13592 l -0.6737,0.83283 -0.67371,0.83283 -3.95971,0.12067 -3.95972,0.12066 -0.25518,-0.41289 -0.25517,-0.41288 -1.36799,0.73319 c -1.39849,0.74955 -2.31252,0.91624 -2.73075,0.49801 z m 0.14402,-10.52454 -0.32808,0.48872 -0.32807,0.48872 -1.00447,-0.2521 c -1.15482,-0.28984 -1.52768,-0.7472 -1.53531,-1.88323 l -0.005,-0.80512 0.79375,-0.29364 0.79375,-0.29365 0.79375,0.36164 c 0.43657,0.1989 0.80011,0.53459 0.80788,0.74598 m 0,0 c 0.008,0.2114 0.23591,-0.0235 0.50699,-0.52196 0.27107,-0.49847 1.44112,-1.4916 2.6001,-2.20696 l 2.10723,-1.300662 2.13344,-0.222989 2.13345,-0.222989 2.29155,1.436799 2.29155,1.436801 1.09835,-1.25095 1.09835,-1.250955 0.85827,0.806296 0.85826,0.806299 v 6.45248 6.45248 l -0.68236,0.36519 c -0.9093,0.48665 -0.87135,0.49649 -2.11279,-0.54811 h -5e-4 l -1.0854,-0.9133 -0.0409,-5.17212 c -0.0225,-2.84466 -0.10936,-4.85461 -0.19301,-4.46655 -0.0837,0.38805 -0.40286,1.29202 -0.70936,2.00883 l -0.55726,1.30327 -1.66879,0.35789 -1.6688,0.35789 -1.3699,-0.37824 c -0.75344,-0.20804 -1.82916,-0.76469 -2.39047,-1.23701 -0.56131,-0.47231 -1.27429,-0.80989 -1.5844,-0.75017 -0.3101,0.0597 -0.98256,0.90072 -1.49435,1.86889 l -0.93053,1.76031 h -0.82806 -0.82806 l 0.0896,-1.76389 0.0896,-1.76389 m -1.20235,6.99676 c -0.43285,-0.43285 -0.24142,-1.4139 0.38218,-1.95858 l 0.61736,-0.53924 2.35068,-0.17792 c 1.29288,-0.0978 2.76972,-0.0978 3.28187,9e-5 l 0.93119,0.17801 -0.10687,0.74905 -0.10687,0.74906 -2.64584,0.58358 c -2.92794,0.64581 -4.34824,0.77141 -4.7037,0.41595 z m -1.39623,-3.16012 c -0.13754,-0.13753 -0.25007,-0.68287 -0.25007,-1.21186 v -0.96179 l 0.52917,-0.20306 c 0.29104,-0.11168 0.77584,-0.1084 1.07733,0.007 l 0.80448,0.32611 -0.0162,1.00228 -0.0493,1.10149 -1.12521,0.0865 c -0.39604,0.0567 -0.8326,-0.009 -0.97014,-0.14699 z m 6.36452,-0.0617 -1.32292,-0.11335 v -0.53106 c 0,-0.29208 0.15159,-0.8143 0.33686,-1.16048 l 0.33685,-0.62942 1.33884,0.21582 1.33884,0.21581 0.10728,0.9209 0.10728,0.92089 -0.46006,0.13712 c -0.25303,0.0754 -1.05537,0.0861 -1.78297,0.0238 z"
       id="path4108"
       sodipodi:nodetypes="ssccccccscccccsccccccccsccccccccccccccccccccccccscccccsccccccscccccsccccccccscscscccccccccsccccccccc" />
  </g>
</svg>
