<?xml version="1.0" encoding="UTF-8" standalone="no"?>
<!-- Created with Inkscape (http://www.inkscape.org/) -->

<svg
   width="20.717545mm"
   height="20.813889mm"
   viewBox="0 0 20.717545 20.813889"
   version="1.1"
   id="svg5"
   inkscape:version="1.1 (c68e22c387, 2021-05-23)"
   sodipodi:docname="drawing.svg"
   xmlns:inkscape="http://www.inkscape.org/namespaces/inkscape"
   xmlns:sodipodi="http://sodipodi.sourceforge.net/DTD/sodipodi-0.dtd"
   xmlns="http://www.w3.org/2000/svg"
   xmlns:svg="http://www.w3.org/2000/svg">
  <sodipodi:namedview
     id="namedview7"
     pagecolor="#ffffff"
     bordercolor="#666666"
     borderopacity="1.0"
     inkscape:pageshadow="2"
     inkscape:pageopacity="0.0"
     inkscape:pagecheckerboard="0"
     inkscape:document-units="mm"
     showgrid="false"
     inkscape:zoom="1.8101934"
     inkscape:cx="-147.22184"
     inkscape:cy="95.293688"
     inkscape:window-width="2560"
     inkscape:window-height="1377"
     inkscape:window-x="1912"
     inkscape:window-y="-8"
     inkscape:window-maximized="1"
     inkscape:current-layer="layer1"
     fit-margin-top="0"
     fit-margin-left="0"
     fit-margin-right="0"
     fit-margin-bottom="0" />
  <defs
     id="defs2" />
  <g
     inkscape:label="Layer 1"
     inkscape:groupmode="layer"
     id="layer1"
     transform="translate(-62.568615,-68.175349)">
    <path
       style="fill:#22e921;stroke-width:0.352778"
       d="m 63.175859,88.024666 c -1.830154,-2.326664 0.79875,-5.45831 3.605944,-4.295532 0.968747,0.401268 1.112521,0.340152 2.573962,-1.094143 1.236991,-1.214016 1.480586,-1.644934 1.21276,-2.145372 -1.431258,-2.674328 1.543688,-5.649274 4.218016,-4.218016 0.499701,0.267431 0.925533,0.03017 2.107691,-1.174366 1.365022,-1.390857 1.451478,-1.588394 1.099907,-2.513096 -0.209859,-0.551973 -0.283443,-1.450324 -0.163518,-1.996335 0.247071,-1.124907 1.687237,-2.412457 2.698411,-2.412457 0.93721,0 2.757128,0.987638 2.757128,1.496247 0,0.230887 -0.73206,1.16303 -1.626799,2.071429 -1.577693,1.601779 -1.614644,1.688462 -1.224134,2.871719 0.940551,2.849899 -1.673488,5.145783 -4.274155,3.753948 -0.631747,-0.338101 -0.931339,-0.185551 -2.251658,1.146528 -1.510598,1.524052 -1.519724,1.548397 -1.124852,3.000787 0.337832,1.242594 0.305548,1.605523 -0.213254,2.397315 -0.924606,1.411128 -2.111259,1.830173 -3.628766,1.281435 -1.243042,-0.44949 -1.272977,-0.437432 -2.905107,1.170156 -0.907017,0.893378 -1.751209,1.624325 -1.875983,1.624325 -0.124774,0 -0.56829,-0.434057 -0.985593,-0.964572 z m 3.328269,-3.374502 c -1.458221,-0.816061 -3.239659,0.761239 -2.806948,2.485296 l 0.22657,0.902728 1.567783,-1.538663 c 1.303666,-1.279451 1.474253,-1.591004 1.012595,-1.849361 z m 4.848003,0.227453 c 0.655544,-0.593259 0.887547,-2.399701 0.3508,-2.731429 -0.161887,-0.100052 -0.970759,0.507309 -1.797494,1.349691 -1.043003,1.062742 -1.357875,1.589503 -1.028577,1.720741 0.916446,0.36524 1.836297,0.239261 2.475271,-0.339003 z m 1.776793,-6.014142 c 0.735785,-0.718474 1.337791,-1.442432 1.337791,-1.608795 0,-0.166363 -0.591662,-0.253207 -1.314805,-0.192988 -1.43332,0.119359 -2.282984,1.176678 -1.954624,2.432328 0.24083,0.920934 0.393976,0.870942 1.931638,-0.630545 z m 6.131048,-2.042501 c 0.37705,-0.575451 0.494809,-1.203613 0.340726,-1.81753 l -0.235463,-0.938156 -1.552018,1.523191 c -1.69503,1.663545 -1.728744,2.11187 -0.158815,2.11187 0.70792,0 1.209317,-0.274617 1.60557,-0.879375 z m 2.413601,-7.340254 c -1.458221,-0.816061 -3.239659,0.761238 -2.806948,2.485295 l 0.22657,0.902728 1.567783,-1.538662 c 1.303666,-1.279451 1.474253,-1.591004 1.012595,-1.849361 z"
       id="path2689" />
  </g>
</svg>
