<?xml version="1.0" encoding="UTF-8" standalone="no"?>
<!-- Created with Inkscape (http://www.inkscape.org/) -->

<svg
   width="21.16667mm"
   height="19.049999mm"
   viewBox="0 0 21.166668 19.050001"
   version="1.1"
   id="svg5"
   inkscape:version="1.1 (c68e22c387, 2021-05-23)"
   sodipodi:docname="Shotgun.svg"
   xmlns:inkscape="http://www.inkscape.org/namespaces/inkscape"
   xmlns:sodipodi="http://sodipodi.sourceforge.net/DTD/sodipodi-0.dtd"
   xmlns="http://www.w3.org/2000/svg"
   xmlns:svg="http://www.w3.org/2000/svg">
  <sodipodi:namedview
     id="namedview7"
     pagecolor="#ffffff"
     bordercolor="#666666"
     borderopacity="1.0"
     inkscape:pageshadow="2"
     inkscape:pageopacity="0.0"
     inkscape:pagecheckerboard="0"
     inkscape:document-units="mm"
     showgrid="false"
     fit-margin-top="0"
     fit-margin-left="0"
     fit-margin-right="0"
     fit-margin-bottom="0"
     inkscape:zoom="2"
     inkscape:cx="-50.25"
     inkscape:cy="167.75"
     inkscape:window-width="2560"
     inkscape:window-height="1377"
     inkscape:window-x="1912"
     inkscape:window-y="-8"
     inkscape:window-maximized="1"
     inkscape:current-layer="layer1" />
  <defs
     id="defs2">
    <inkscape:perspective
       sodipodi:type="inkscape:persp3d"
       inkscape:vp_x="0 : 5.0265367 : 1"
       inkscape:vp_y="0 : 1000 : 0"
       inkscape:vp_z="17.955577 : 5.0265367 : 1"
       inkscape:persp3d-origin="8.977789 : 2.0310365 : 1"
       id="perspective7658" />
  </defs>
  <g
     inkscape:label="Layer 1"
     inkscape:groupmode="layer"
     id="layer1"
     transform="translate(-117.27127,-56.100273)">
    <path
       style="fill:#fe7c00;stroke-width:0.352778"
       d="m 117.27127,74.444718 v -0.705556 h 2.82222 2.82222 v 0.705556 0.705555 h -2.82222 -2.82222 z m 7.76111,0 v -0.705556 h 2.82222 2.82222 v 0.705556 0.705555 h -2.82222 -2.82222 z m 7.76111,0 v -0.705556 h 2.82223 2.82222 v 0.705556 0.705555 h -2.82222 -2.82223 z M 117.27127,64.56694 v -8.466667 h 2.82222 2.82222 v 8.466667 8.466667 h -2.82222 -2.82222 z m 4.23333,-2.116667 v -4.938889 h -1.41111 -1.41111 v 4.938889 4.938889 h 1.41111 1.41111 z m 3.52778,2.116667 v -8.466667 h 2.82222 2.82222 v 8.466667 8.466667 h -2.82222 -2.82222 z m 4.23333,-2.116667 v -4.938889 h -1.41111 -1.41111 v 4.938889 4.938889 h 1.41111 1.41111 z m 3.52778,2.116667 v -8.466667 h 2.82223 2.82222 v 8.466667 8.466667 h -2.82222 -2.82223 z m 4.23334,-2.116667 v -4.938889 h -1.41111 -1.41112 v 4.938889 4.938889 h 1.41112 1.41111 z"
       id="path24941" />
  </g>
</svg>
