<?xml version="1.0" encoding="UTF-8" standalone="no"?>
<!-- Created with Inkscape (http://www.inkscape.org/) -->

<svg
   width="12.897214mm"
   height="12.904358mm"
   viewBox="0 0 12.897214 12.904358"
   version="1.1"
   id="svg5"
   inkscape:version="1.1 (c68e22c387, 2021-05-23)"
   sodipodi:docname="World.svg"
   xmlns:inkscape="http://www.inkscape.org/namespaces/inkscape"
   xmlns:sodipodi="http://sodipodi.sourceforge.net/DTD/sodipodi-0.dtd"
   xmlns="http://www.w3.org/2000/svg"
   xmlns:svg="http://www.w3.org/2000/svg">
  <sodipodi:namedview
     id="namedview7"
     pagecolor="#ffffff"
     bordercolor="#666666"
     borderopacity="1.0"
     inkscape:pageshadow="2"
     inkscape:pageopacity="0.0"
     inkscape:pagecheckerboard="0"
     inkscape:document-units="mm"
     showgrid="false"
     fit-margin-top="0"
     fit-margin-left="0"
     fit-margin-right="0"
     fit-margin-bottom="0"
     inkscape:zoom="4"
     inkscape:cx="32.125"
     inkscape:cy="41.625"
     inkscape:window-width="2560"
     inkscape:window-height="1377"
     inkscape:window-x="1912"
     inkscape:window-y="-8"
     inkscape:window-maximized="1"
     inkscape:current-layer="layer1" />
  <defs
     id="defs2" />
  <g
     inkscape:label="Layer 1"
     inkscape:groupmode="layer"
     id="layer1"
     transform="translate(-102.50862,-96.643579)">
    <path
       style="fill:#f7220d;stroke-width:0.127"
       d="m 104.46939,109.37424 c -0.22001,-0.17306 -0.33746,-0.38774 -0.33746,-0.61684 0,-0.24821 -0.09,-0.3924 -0.30648,-0.49104 -0.59685,-0.27194 -0.58305,-1.16687 0.0226,-1.46389 0.39251,-0.1925 0.75617,-0.14991 1.06643,0.12489 0.18771,0.16626 0.314,0.14222 1.143,-0.21759 0.51259,-0.22247 0.97367,-0.44275 1.02462,-0.48951 0.051,-0.0468 -0.56567,-0.36023 -1.37026,-0.69661 -1.44184,-0.60281 -1.46906,-0.60868 -1.89174,-0.40811 -0.32042,0.15205 -0.5122,0.17181 -0.75855,0.0782 -0.6682,-0.25405 -0.75367,-1.26918 -0.13076,-1.55299 0.21082,-0.0961 0.29336,-0.21466 0.24827,-0.35673 -0.11476,-0.36156 0.4062,-0.88774 0.87893,-0.88774 0.52496,0 0.83538,0.33304 0.83793,0.899 l 0.002,0.4345 1.94317,0.79375 c 1.06874,0.43656 2.02513,0.79441 2.12529,0.79521 0.10017,8e-4 1.05366,-0.353 2.11887,-0.78623 l 1.93675,-0.78769 v -0.46409 c 0,-0.56392 0.31095,-0.88445 0.85803,-0.88445 0.45093,0 0.96845,0.53617 0.85687,0.88774 -0.0451,0.14207 0.0375,0.26067 0.24827,0.35673 0.60846,0.27723 0.54229,1.27012 -0.10429,1.56472 -0.23823,0.10855 -0.40331,0.0913 -0.76432,-0.0801 l -0.46047,-0.2185 -1.45396,0.61767 c -0.79968,0.33972 -1.41348,0.65815 -1.36401,0.70762 0.0495,0.0495 0.50976,0.26306 1.02286,0.47465 0.84884,0.35004 0.95718,0.3677 1.20222,0.19607 0.60537,-0.42402 1.4828,-0.0472 1.4828,0.63686 0,0.31559 -0.39224,0.8255 -0.635,0.8255 -0.0699,0 -0.127,0.16259 -0.127,0.36132 0,0.37087 -0.29707,0.73824 -0.635,0.78527 -0.64329,0.0895 -0.91617,-0.118 -1.00603,-0.76507 l -0.0735,-0.52907 -1.52327,-0.63048 -1.52326,-0.63048 -0.64818,0.24804 c -0.35649,0.13643 -1.08156,0.42846 -1.61125,0.64898 -0.90358,0.37616 -0.96241,0.42449 -0.95224,0.78236 0.0208,0.73277 -0.78507,1.1761 -1.34184,0.73814 z m 2.65424,-5.10127 c -0.10873,-0.15524 -0.1977,-0.50183 -0.1977,-0.7702 0,-0.38436 -0.0795,-0.55483 -0.37451,-0.80307 -0.63124,-0.53115 -1.07625,-1.60862 -1.06588,-2.58069 0.0107,-1.000303 0.2531,-1.606622 0.94059,-2.35246 2.13347,-2.314535 5.99164,-0.814172 6.0175,2.34008 0.008,0.96628 -0.44812,2.06206 -1.07919,2.59307 -0.29501,0.24824 -0.37451,0.41871 -0.37451,0.80307 0,0.26837 -0.089,0.61496 -0.1977,0.7702 -0.18691,0.26685 -0.28706,0.28226 -1.8343,0.28226 -1.54724,0 -1.64739,-0.0154 -1.8343,-0.28226 z m 0.88757,-3.07747 c 0.3604,-0.3604 0.39264,-0.65923 0.11403,-1.05701 -0.23987,-0.342454 -1.07406,-0.395684 -1.33192,-0.085 -0.26607,0.3206 -0.20074,0.95533 0.12552,1.21952 0.39227,0.31764 0.72051,0.29435 1.09237,-0.0775 z m 2.97873,0.0577 c 0.52368,-0.52368 0.16165,-1.428744 -0.5715,-1.428744 -0.74751,0 -1.09789,0.911084 -0.54755,1.423794 0.35276,0.32865 0.7934,0.3306 1.11905,0.005 z"
       id="path2062" />
  </g>
</svg>
